<svg width="181" height="42" viewBox="0 0 181 42" fill="none" xmlns="http://www.w3.org/2000/svg">
<path d="M17.568 29.44H8V8H17.312C18.6133 8 19.744 8.20267 20.704 8.608C21.6853 9.01333 22.4427 9.61067 22.976 10.4C23.5093 11.168 23.776 12.1387 23.776 13.312C23.776 14.528 23.424 15.552 22.72 16.384C22.0373 17.216 21.024 17.76 19.68 18.016V18.176C21.2587 18.4533 22.4427 19.072 23.232 20.032C24.0213 20.992 24.416 22.1653 24.416 23.552C24.416 24.7893 24.128 25.8453 23.552 26.72C22.9973 27.5947 22.208 28.2667 21.184 28.736C20.1813 29.2053 18.976 29.44 17.568 29.44ZM10.304 19.232V27.328H17.504C19.104 27.328 20.2667 27.0293 20.992 26.432C21.7387 25.8133 22.112 24.768 22.112 23.296C22.112 21.824 21.7387 20.7787 20.992 20.16C20.2453 19.5413 19.0827 19.232 17.504 19.232H10.304ZM10.304 10.08V17.28H16.992C18.5707 17.28 19.712 17.0027 20.416 16.448C21.12 15.872 21.472 14.9547 21.472 13.696C21.472 12.416 21.152 11.4987 20.512 10.944C19.872 10.368 18.7627 10.08 17.184 10.08H10.304Z" fill="black"/>
<path d="M39.913 29.44H37.833V25.984L37.737 25.216V19.264C37.737 17.8773 37.417 16.8853 36.777 16.288C36.1583 15.6693 35.1023 15.36 33.609 15.36C32.1583 15.36 31.0917 15.648 30.409 16.224C29.7263 16.8 29.385 17.728 29.385 19.008V19.488H27.145V19.232C27.145 18.1227 27.4117 17.12 27.945 16.224C28.4783 15.328 29.2357 14.624 30.217 14.112C31.2197 13.5787 32.4037 13.312 33.769 13.312C35.177 13.312 36.329 13.5893 37.225 14.144C38.1423 14.6987 38.8143 15.4453 39.241 16.384C39.689 17.3013 39.913 18.3573 39.913 19.552V29.44ZM31.721 29.76C30.2917 29.76 29.0863 29.408 28.105 28.704C27.145 27.9787 26.665 26.9547 26.665 25.632C26.665 24.6933 26.8783 23.936 27.305 23.36C27.753 22.7627 28.393 22.2827 29.225 21.92C30.057 21.5573 31.0383 21.312 32.169 21.184L38.057 20.384V22.112L32.361 22.912C31.1023 23.0613 30.2063 23.3173 29.673 23.68C29.161 24.0213 28.905 24.6187 28.905 25.472C28.905 26.2827 29.1717 26.88 29.705 27.264C30.2597 27.648 31.145 27.84 32.361 27.84C33.2783 27.84 34.1423 27.6693 34.953 27.328C35.785 26.9867 36.457 26.4427 36.969 25.696C37.481 24.9493 37.737 23.9467 37.737 22.688L38.185 26.592L37.673 26.496C37.3743 27.0933 36.9477 27.6373 36.393 28.128C35.8383 28.6187 35.1663 29.0133 34.377 29.312C33.609 29.6107 32.7237 29.76 31.721 29.76Z" fill="black"/>
<path d="M49.1343 29.472C47.6623 29.472 46.5209 29.1413 45.7103 28.48C44.8996 27.7973 44.4943 26.624 44.4943 24.96V13.888L45.1022 9.6H46.7983V25.088C46.7983 26.0267 47.0329 26.6347 47.5023 26.912C47.9716 27.1893 48.7182 27.328 49.7422 27.328H51.7902V29.216C51.5342 29.2587 51.1609 29.312 50.6702 29.376C50.2009 29.44 49.6889 29.472 49.1343 29.472ZM51.7902 15.616H41.8382V13.632H51.7902V15.616Z" fill="black"/>
<path d="M60.185 29.76C58.5637 29.76 57.1983 29.408 56.089 28.704C55.001 27.9787 54.169 26.9973 53.593 25.76C53.0383 24.5227 52.761 23.1147 52.761 21.536C52.761 19.936 53.0597 18.5173 53.657 17.28C54.2757 16.0427 55.129 15.072 56.217 14.368C57.3263 13.664 58.6277 13.312 60.121 13.312C61.401 13.312 62.5637 13.568 63.609 14.08C64.6757 14.592 65.5183 15.36 66.137 16.384C66.7557 17.408 67.065 18.6987 67.065 20.256C67.065 20.64 67.0437 21.0027 67.001 21.344C66.9797 21.6853 66.9477 21.9627 66.905 22.176H53.977V20.48H65.241L64.857 20.896C64.9637 19.5307 64.8357 18.4427 64.473 17.632C64.1103 16.8213 63.5557 16.224 62.809 15.84C62.0623 15.456 61.1557 15.264 60.089 15.264C58.2117 15.264 56.8783 15.7973 56.089 16.864C55.321 17.9093 54.937 19.328 54.937 21.12V21.728C54.937 22.9867 55.097 24.064 55.417 24.96C55.7583 25.8347 56.313 26.5173 57.081 27.008C57.849 27.4773 58.8943 27.712 60.217 27.712C61.7957 27.712 62.9263 27.392 63.609 26.752C64.313 26.0907 64.665 25.2907 64.665 24.352V24.16H66.937V24.384C66.937 25.408 66.649 26.3253 66.073 27.136C65.5183 27.9467 64.729 28.5867 63.705 29.056C62.7023 29.5253 61.529 29.76 60.185 29.76Z" fill="black"/>
<path d="M72.3613 29.44H70.0573V8H72.3613V29.44Z" fill="black"/>
<path d="M85.4508 29.44H81.9948V8H85.4508V29.44ZM97.3228 29.44H83.0508V26.304H97.3228V29.44ZM96.8428 20.224H83.0508V17.088H96.8428V20.224ZM97.3228 11.104H83.0508V8H97.3228V11.104Z" fill="black"/>
<path d="M103.605 29.44H100.149V8H103.605V29.44Z" fill="black"/>
<path d="M115.821 29.76C114.434 29.76 113.293 29.504 112.397 28.992C111.501 28.4587 110.85 27.7333 110.445 26.816H109.805L109.997 22.912H110.605C110.605 23.7867 110.765 24.512 111.085 25.088C111.426 25.664 111.917 26.1013 112.557 26.4C113.218 26.6773 114.007 26.816 114.925 26.816C115.693 26.816 116.343 26.72 116.877 26.528C117.431 26.336 117.89 26.0373 118.253 25.632C118.615 25.2053 118.871 24.6507 119.021 23.968C119.191 23.264 119.277 22.432 119.277 21.472C119.277 20.4907 119.191 19.6587 119.021 18.976C118.871 18.2933 118.615 17.7493 118.253 17.344C117.911 16.9387 117.463 16.64 116.909 16.448C116.354 16.256 115.693 16.16 114.925 16.16C114.007 16.16 113.218 16.2987 112.557 16.576C111.917 16.8533 111.426 17.28 111.085 17.856C110.765 18.432 110.605 19.168 110.605 20.064H109.997L109.805 16.064H110.701C111.042 15.3387 111.661 14.688 112.557 14.112C113.474 13.5147 114.626 13.216 116.013 13.216C118.21 13.216 119.874 13.9627 121.005 15.456C122.157 16.9493 122.733 18.9547 122.733 21.472C122.733 23.9893 122.135 26.0053 120.941 27.52C119.767 29.0133 118.061 29.76 115.821 29.76ZM110.317 29.44H107.149V8H110.605V25.248L110.317 25.664V29.44Z" fill="black"/>
<path d="M132.564 29.76C130.836 29.76 129.396 29.4187 128.244 28.736C127.092 28.032 126.239 27.0613 125.685 25.824C125.13 24.5653 124.853 23.1147 124.853 21.472C124.853 19.8293 125.162 18.3893 125.781 17.152C126.421 15.9147 127.316 14.9547 128.468 14.272C129.62 13.568 130.986 13.216 132.564 13.216C133.994 13.216 135.252 13.4933 136.34 14.048C137.45 14.5813 138.303 15.36 138.9 16.384C139.519 17.408 139.829 18.6453 139.829 20.096C139.829 20.5227 139.807 20.9387 139.764 21.344C139.743 21.728 139.711 22.048 139.669 22.304H126.484V20H136.852L136.501 20.32C136.586 19.3387 136.479 18.5387 136.18 17.92C135.903 17.3013 135.444 16.8427 134.804 16.544C134.186 16.2453 133.407 16.096 132.468 16.096C130.783 16.096 129.631 16.5227 129.012 17.376C128.394 18.208 128.085 19.36 128.085 20.832V21.792C128.085 22.8587 128.212 23.7653 128.468 24.512C128.746 25.2373 129.215 25.7813 129.877 26.144C130.538 26.5067 131.444 26.688 132.596 26.688C133.94 26.688 134.89 26.4747 135.445 26.048C135.999 25.6213 136.277 25.056 136.277 24.352V24.096H139.701V24.384C139.701 25.472 139.402 26.4213 138.805 27.232C138.207 28.0213 137.375 28.64 136.309 29.088C135.263 29.536 134.015 29.76 132.564 29.76Z" fill="black"/>
<path d="M146.042 29.44H142.586V13.44H145.754V17.888L146.042 18.048V29.44ZM146.042 19.072H145.242V15.968H145.914C146.234 15.2213 146.757 14.5813 147.482 14.048C148.229 13.4933 149.189 13.216 150.362 13.216C151.493 13.216 152.389 13.4613 153.05 13.952C153.733 14.4427 154.224 15.0933 154.522 15.904C154.821 16.7147 154.97 17.6213 154.97 18.624V19.68H151.514V19.04C151.514 17.9733 151.333 17.2267 150.97 16.8C150.608 16.3733 149.925 16.16 148.922 16.16C147.877 16.16 147.13 16.384 146.682 16.832C146.256 17.2587 146.042 18.0053 146.042 19.072Z" fill="black"/>
<path d="M164.7 35.2C163.207 35.2 161.905 34.9653 160.796 34.496C159.708 34.0267 158.865 33.344 158.268 32.448C157.671 31.5733 157.372 30.496 157.372 29.216H160.828C160.828 29.9413 160.935 30.5173 161.148 30.944C161.361 31.3707 161.756 31.6693 162.332 31.84C162.908 32.032 163.729 32.128 164.796 32.128C165.841 32.128 166.641 32.0107 167.196 31.776C167.751 31.5413 168.135 31.1467 168.348 30.592C168.561 30.0373 168.668 29.2693 168.668 28.288V17.728L168.924 17.312V13.536H172.124V28.288C172.124 29.8453 171.825 31.1253 171.228 32.128C170.631 33.152 169.777 33.92 168.668 34.432C167.58 34.944 166.257 35.2 164.7 35.2ZM163.356 27.936C161.159 27.936 159.473 27.2747 158.3 25.952C157.127 24.608 156.54 22.816 156.54 20.576C156.54 18.336 157.137 16.5547 158.332 15.232C159.527 13.888 161.244 13.216 163.484 13.216C164.785 13.216 165.905 13.4827 166.844 14.016C167.783 14.528 168.433 15.2427 168.796 16.16H169.436L169.276 20.064H168.668C168.668 19.168 168.487 18.432 168.124 17.856C167.761 17.28 167.249 16.8533 166.588 16.576C165.927 16.2987 165.159 16.16 164.284 16.16C163.281 16.16 162.46 16.2987 161.82 16.576C161.201 16.8533 160.743 17.3227 160.444 17.984C160.145 18.624 159.996 19.488 159.996 20.576C159.996 21.3867 160.081 22.08 160.252 22.656C160.423 23.2107 160.689 23.6587 161.052 24C161.415 24.3413 161.873 24.5973 162.428 24.768C162.983 24.9173 163.623 24.992 164.348 24.992C165.223 24.992 165.98 24.8533 166.62 24.576C167.26 24.2773 167.761 23.84 168.124 23.264C168.487 22.688 168.668 21.952 168.668 21.056H169.372V25.12H168.54C168.177 25.888 167.548 26.5493 166.652 27.104C165.756 27.6587 164.657 27.936 163.356 27.936Z" fill="black"/>
</svg>
